<?xml version="1.0" encoding="UTF-8" standalone="no"?>
<!DOCTYPE svg PUBLIC "-//W3C//DTD SVG 1.1//EN"
 "http://www.w3.org/Graphics/SVG/1.1/DTD/svg11.dtd">
<!-- Generated by graphviz version 4.0.0 (0)
 -->
<!-- Title: snakemake_dag Pages: 1 -->
<svg width="186pt" height="692pt"
 viewBox="0.00 0.00 186.00 692.00" xmlns="http://www.w3.org/2000/svg" xmlns:xlink="http://www.w3.org/1999/xlink">
<g id="graph0" class="graph" transform="scale(1 1) rotate(0) translate(4 688)">
<title>snakemake_dag</title>
<polygon fill="white" stroke="transparent" points="-4,4 -4,-688 182,-688 182,4 -4,4"/>
<!-- 0 -->
<g id="node1" class="node">
<title>0</title>
<path fill="none" stroke="#d88556" stroke-width="2" d="M99.5,-36C99.5,-36 69.5,-36 69.5,-36 63.5,-36 57.5,-30 57.5,-24 57.5,-24 57.5,-12 57.5,-12 57.5,-6 63.5,0 69.5,0 69.5,0 99.5,0 99.5,0 105.5,0 111.5,-6 111.5,-12 111.5,-12 111.5,-24 111.5,-24 111.5,-30 105.5,-36 99.5,-36"/>
<text text-anchor="middle" x="84.5" y="-15.5" font-family="sans" font-size="10.00">all</text>
</g>
<!-- 1 -->
<g id="node2" class="node">
<title>1</title>
<path fill="none" stroke="#d85656" stroke-width="2" d="M99.5,-108C99.5,-108 69.5,-108 69.5,-108 63.5,-108 57.5,-102 57.5,-96 57.5,-96 57.5,-84 57.5,-84 57.5,-78 63.5,-72 69.5,-72 69.5,-72 99.5,-72 99.5,-72 105.5,-72 111.5,-78 111.5,-84 111.5,-84 111.5,-96 111.5,-96 111.5,-102 105.5,-108 99.5,-108"/>
<text text-anchor="middle" x="84.5" y="-87.5" font-family="sans" font-size="10.00">cleanup</text>
</g>
<!-- 1&#45;&gt;0 -->
<g id="edge1" class="edge">
<title>1&#45;&gt;0</title>
<path fill="none" stroke="grey" stroke-width="2" d="M84.5,-71.7C84.5,-63.98 84.5,-54.71 84.5,-46.11"/>
<polygon fill="grey" stroke="grey" stroke-width="2" points="88,-46.1 84.5,-36.1 81,-46.1 88,-46.1"/>
</g>
<!-- 2 -->
<g id="node3" class="node">
<title>2</title>
<path fill="none" stroke="#56d86b" stroke-width="2" d="M106.5,-180C106.5,-180 62.5,-180 62.5,-180 56.5,-180 50.5,-174 50.5,-168 50.5,-168 50.5,-156 50.5,-156 50.5,-150 56.5,-144 62.5,-144 62.5,-144 106.5,-144 106.5,-144 112.5,-144 118.5,-150 118.5,-156 118.5,-156 118.5,-168 118.5,-168 118.5,-174 112.5,-180 106.5,-180"/>
<text text-anchor="middle" x="84.5" y="-159.5" font-family="sans" font-size="10.00">summarize</text>
</g>
<!-- 2&#45;&gt;1 -->
<g id="edge2" class="edge">
<title>2&#45;&gt;1</title>
<path fill="none" stroke="grey" stroke-width="2" d="M84.5,-143.7C84.5,-135.98 84.5,-126.71 84.5,-118.11"/>
<polygon fill="grey" stroke="grey" stroke-width="2" points="88,-118.1 84.5,-108.1 81,-118.1 88,-118.1"/>
</g>
<!-- 3 -->
<g id="node4" class="node">
<title>3</title>
<path fill="none" stroke="#5682d8" stroke-width="2" d="M99.5,-252C99.5,-252 69.5,-252 69.5,-252 63.5,-252 57.5,-246 57.5,-240 57.5,-240 57.5,-228 57.5,-228 57.5,-222 63.5,-216 69.5,-216 69.5,-216 99.5,-216 99.5,-216 105.5,-216 111.5,-222 111.5,-228 111.5,-228 111.5,-240 111.5,-240 111.5,-246 105.5,-252 99.5,-252"/>
<text text-anchor="middle" x="84.5" y="-231.5" font-family="sans" font-size="10.00">get_nn</text>
</g>
<!-- 3&#45;&gt;2 -->
<g id="edge3" class="edge">
<title>3&#45;&gt;2</title>
<path fill="none" stroke="grey" stroke-width="2" d="M84.5,-215.7C84.5,-207.98 84.5,-198.71 84.5,-190.11"/>
<polygon fill="grey" stroke="grey" stroke-width="2" points="88,-190.1 84.5,-180.1 81,-190.1 88,-190.1"/>
</g>
<!-- 4 -->
<g id="node5" class="node">
<title>4</title>
<path fill="none" stroke="#56b1d8" stroke-width="2" d="M137.5,-324C137.5,-324 93.5,-324 93.5,-324 87.5,-324 81.5,-318 81.5,-312 81.5,-312 81.5,-300 81.5,-300 81.5,-294 87.5,-288 93.5,-288 93.5,-288 137.5,-288 137.5,-288 143.5,-288 149.5,-294 149.5,-300 149.5,-300 149.5,-312 149.5,-312 149.5,-318 143.5,-324 137.5,-324"/>
<text text-anchor="middle" x="115.5" y="-303.5" font-family="sans" font-size="10.00">build_trees</text>
</g>
<!-- 4&#45;&gt;3 -->
<g id="edge5" class="edge">
<title>4&#45;&gt;3</title>
<path fill="none" stroke="grey" stroke-width="2" d="M107.84,-287.7C104.31,-279.73 100.04,-270.1 96.13,-261.26"/>
<polygon fill="grey" stroke="grey" stroke-width="2" points="99.32,-259.83 92.07,-252.1 92.92,-262.67 99.32,-259.83"/>
</g>
<!-- 5 -->
<g id="node6" class="node">
<title>5</title>
<path fill="none" stroke="#9fd856" stroke-width="2" d="M103.5,-396C103.5,-396 65.5,-396 65.5,-396 59.5,-396 53.5,-390 53.5,-384 53.5,-384 53.5,-372 53.5,-372 53.5,-366 59.5,-360 65.5,-360 65.5,-360 103.5,-360 103.5,-360 109.5,-360 115.5,-366 115.5,-372 115.5,-372 115.5,-384 115.5,-384 115.5,-390 109.5,-396 103.5,-396"/>
<text text-anchor="middle" x="84.5" y="-375.5" font-family="sans" font-size="10.00">align_trim</text>
</g>
<!-- 5&#45;&gt;3 -->
<g id="edge4" class="edge">
<title>5&#45;&gt;3</title>
<path fill="none" stroke="grey" stroke-width="2" d="M79.63,-359.98C76.94,-349.67 73.86,-336.19 72.5,-324 70.72,-308.1 70.72,-303.9 72.5,-288 73.46,-279.43 75.26,-270.22 77.19,-261.93"/>
<polygon fill="grey" stroke="grey" stroke-width="2" points="80.63,-262.57 79.63,-252.02 73.84,-260.89 80.63,-262.57"/>
</g>
<!-- 5&#45;&gt;4 -->
<g id="edge6" class="edge">
<title>5&#45;&gt;4</title>
<path fill="none" stroke="grey" stroke-width="2" d="M92.16,-359.7C95.69,-351.73 99.96,-342.1 103.87,-333.26"/>
<polygon fill="grey" stroke="grey" stroke-width="2" points="107.08,-334.67 107.93,-324.1 100.68,-331.83 107.08,-334.67"/>
</g>
<!-- 6 -->
<g id="node7" class="node">
<title>6</title>
<path fill="none" stroke="#56d89a" stroke-width="2" d="M130.5,-468C130.5,-468 38.5,-468 38.5,-468 32.5,-468 26.5,-462 26.5,-456 26.5,-456 26.5,-444 26.5,-444 26.5,-438 32.5,-432 38.5,-432 38.5,-432 130.5,-432 130.5,-432 136.5,-432 142.5,-438 142.5,-444 142.5,-444 142.5,-456 142.5,-456 142.5,-462 136.5,-468 130.5,-468"/>
<text text-anchor="middle" x="84.5" y="-447.5" font-family="sans" font-size="10.00">blastp_reduce_merge</text>
</g>
<!-- 6&#45;&gt;5 -->
<g id="edge7" class="edge">
<title>6&#45;&gt;5</title>
<path fill="none" stroke="grey" stroke-width="2" d="M84.5,-431.7C84.5,-423.98 84.5,-414.71 84.5,-406.11"/>
<polygon fill="grey" stroke="grey" stroke-width="2" points="88,-406.1 84.5,-396.1 81,-406.1 88,-406.1"/>
</g>
<!-- 7 -->
<g id="node8" class="node">
<title>7</title>
<path fill="none" stroke="#56d8c9" stroke-width="2" d="M110,-540C110,-540 59,-540 59,-540 53,-540 47,-534 47,-528 47,-528 47,-516 47,-516 47,-510 53,-504 59,-504 59,-504 110,-504 110,-504 116,-504 122,-510 122,-516 122,-516 122,-528 122,-528 122,-534 116,-540 110,-540"/>
<text text-anchor="middle" x="84.5" y="-519.5" font-family="sans" font-size="10.00">extract_qhits</text>
</g>
<!-- 7&#45;&gt;6 -->
<g id="edge8" class="edge">
<title>7&#45;&gt;6</title>
<path fill="none" stroke="grey" stroke-width="2" d="M84.5,-503.7C84.5,-495.98 84.5,-486.71 84.5,-478.11"/>
<polygon fill="grey" stroke="grey" stroke-width="2" points="88,-478.1 84.5,-468.1 81,-478.1 88,-478.1"/>
</g>
<!-- 8 -->
<g id="node9" class="node">
<title>8</title>
<path fill="none" stroke="#70d856" stroke-width="2" d="M118.5,-612C118.5,-612 50.5,-612 50.5,-612 44.5,-612 38.5,-606 38.5,-600 38.5,-600 38.5,-588 38.5,-588 38.5,-582 44.5,-576 50.5,-576 50.5,-576 118.5,-576 118.5,-576 124.5,-576 130.5,-582 130.5,-588 130.5,-588 130.5,-600 130.5,-600 130.5,-606 124.5,-612 118.5,-612"/>
<text text-anchor="middle" x="84.5" y="-591.5" font-family="sans" font-size="10.00">run_hmmsearch</text>
</g>
<!-- 8&#45;&gt;7 -->
<g id="edge10" class="edge">
<title>8&#45;&gt;7</title>
<path fill="none" stroke="grey" stroke-width="2" d="M84.5,-575.7C84.5,-567.98 84.5,-558.71 84.5,-550.11"/>
<polygon fill="grey" stroke="grey" stroke-width="2" points="88,-550.1 84.5,-540.1 81,-550.1 88,-550.1"/>
</g>
<!-- 9 -->
<g id="node10" class="node">
<title>9</title>
<path fill="none" stroke="#ced856" stroke-width="2" d="M65,-684C65,-684 12,-684 12,-684 6,-684 0,-678 0,-672 0,-672 0,-660 0,-660 0,-654 6,-648 12,-648 12,-648 65,-648 65,-648 71,-648 77,-654 77,-660 77,-660 77,-672 77,-672 77,-678 71,-684 65,-684"/>
<text text-anchor="middle" x="38.5" y="-663.5" font-family="sans" font-size="10.00">reformat_faa</text>
</g>
<!-- 9&#45;&gt;7 -->
<g id="edge9" class="edge">
<title>9&#45;&gt;7</title>
<path fill="none" stroke="grey" stroke-width="2" d="M31.99,-647.86C26.03,-629.37 19.54,-599.44 29.5,-576 34.23,-564.86 42.58,-554.93 51.37,-546.76"/>
<polygon fill="grey" stroke="grey" stroke-width="2" points="53.85,-549.24 59.12,-540.05 49.27,-543.95 53.85,-549.24"/>
</g>
<!-- 9&#45;&gt;8 -->
<g id="edge12" class="edge">
<title>9&#45;&gt;8</title>
<path fill="none" stroke="grey" stroke-width="2" d="M49.87,-647.7C55.22,-639.56 61.7,-629.69 67.61,-620.7"/>
<polygon fill="grey" stroke="grey" stroke-width="2" points="70.69,-622.38 73.26,-612.1 64.84,-618.54 70.69,-622.38"/>
</g>
<!-- 10 -->
<g id="node11" class="node">
<title>10</title>
<path fill="none" stroke="#d8b456" stroke-width="2" d="M166,-684C166,-684 121,-684 121,-684 115,-684 109,-678 109,-672 109,-672 109,-660 109,-660 109,-654 115,-648 121,-648 121,-648 166,-648 166,-648 172,-648 178,-654 178,-660 178,-660 178,-672 178,-672 178,-678 172,-684 166,-684"/>
<text text-anchor="middle" x="143.5" y="-663.5" font-family="sans" font-size="10.00">genecalling</text>
</g>
<!-- 10&#45;&gt;7 -->
<g id="edge11" class="edge">
<title>10&#45;&gt;7</title>
<path fill="none" stroke="grey" stroke-width="2" d="M146.37,-647.73C148.65,-629.14 149.95,-599.12 139.5,-576 134.52,-564.97 126.1,-555.07 117.32,-546.89"/>
<polygon fill="grey" stroke="grey" stroke-width="2" points="119.44,-544.1 109.6,-540.17 114.84,-549.38 119.44,-544.1"/>
</g>
<!-- 10&#45;&gt;8 -->
<g id="edge13" class="edge">
<title>10&#45;&gt;8</title>
<path fill="none" stroke="grey" stroke-width="2" d="M128.92,-647.7C121.84,-639.3 113.22,-629.07 105.45,-619.86"/>
<polygon fill="grey" stroke="grey" stroke-width="2" points="108.04,-617.49 98.92,-612.1 102.69,-622.01 108.04,-617.49"/>
</g>
</g>
</svg>
